<?xml version="1.0" encoding="UTF-8" standalone="no"?>
<!-- Created with Inkscape (http://www.inkscape.org/) -->

<svg
   version="1.1"
   id="svg2"
   width="4553.3335"
   height="3333.3333"
   viewBox="0 0 4553.3335 3333.3333"
   sodipodi:docname="iStock-1443537665.eps"
   xmlns:inkscape="http://www.inkscape.org/namespaces/inkscape"
   xmlns:sodipodi="http://sodipodi.sourceforge.net/DTD/sodipodi-0.dtd"
   xmlns="http://www.w3.org/2000/svg"
   xmlns:svg="http://www.w3.org/2000/svg">
  <defs
     id="defs6" />
  <sodipodi:namedview
     id="namedview4"
     pagecolor="#ffffff"
     bordercolor="#000000"
     borderopacity="0.25"
     inkscape:showpageshadow="2"
     inkscape:pageopacity="0.0"
     inkscape:pagecheckerboard="0"
     inkscape:deskcolor="#d1d1d1" />
  <g
     id="g8"
     inkscape:groupmode="layer"
     inkscape:label="ink_ext_XXXXXX"
     transform="matrix(1.3333333,0,0,-1.3333333,0,3333.3333)">
    <g
       id="g10"
       transform="scale(0.1)">

      <path
         d="m 10988.5,16306.4 c -0.7,0 -1.4,0 -2.1,0 -182.4,-0.5 -353.7,-72 -482.3,-201.3 -128.6,-129.3 -199.1,-301 -198.6,-483.2 1.2,-375.7 307.3,-680.6 682.9,-680.6 0.7,0 1.3,0 2,0 182.4,0.5 353.7,72 482.3,201.4 128.5,129.2 199.1,300.8 198.5,483.2 -0.5,182.3 -72,353.5 -201.4,482 -128.8,128.1 -299.7,198.5 -481.3,198.5 z m -0.1,-1409.1 c -399.8,0 -725.7,324.5 -726.9,724.4 -0.5,194.1 74.5,376.8 211.4,514.4 136.9,137.6 319.2,213.8 513.4,214.3 0.7,0 1.5,0 2.2,0 193.3,0 375.2,-75 512.4,-211.3 137.7,-136.8 213.8,-319 214.4,-513.1 0.5,-194.1 -74.5,-376.8 -211.4,-514.4 -136.9,-137.6 -319.2,-213.8 -513.4,-214.3 -0.7,0 -1.4,0 -2.1,0 z m -799.4,-589 c 3.9,0 7.8,-1 11.3,-3.1 131,-78.4 272.7,-136.6 421.3,-172.9 10.8,-2.7 17.9,-12.9 16.6,-24 -1.9,-16.4 -2.8,-30.1 -2.8,-43.4 0.3,-95.5 37.8,-185.1 105.5,-252.4 67.5,-67.1 157,-103.9 252,-103.9 0.4,0 0.8,0 1.1,0 95.5,0.2 185.2,37.7 252.6,105.4 67.3,67.7 104.2,157.5 103.9,253 0,13.1 -1,27.3 -3,43.4 -1.4,11 5.7,21.3 16.5,24 148.3,37.3 289.7,96.3 420.2,175.5 9.6,5.8 21.9,3.5 28.7,-5.2 10,-12.7 19.4,-23.4 28.7,-32.7 139.9,-138.9 366.7,-138.3 505.7,1.5 67.3,67.7 104.3,157.6 104,253 -0.3,95.5 -37.8,185.1 -105.5,252.4 -9.3,9.4 -19.8,18.4 -32.8,28.5 -8.8,6.9 -11.1,19.2 -5.4,28.7 78.4,130.9 136.6,272.6 173,421.1 2.7,10.8 12.9,18 24,16.6 16.4,-1.9 29.7,-3.2 43.4,-2.7 95.5,0.3 185.2,37.7 252.5,105.4 67.4,67.7 104.3,157.5 104,253 -0.6,196.7 -160.9,356.3 -357.5,356.3 -0.4,0 -0.7,0 -1.1,0 -13.1,0 -27.3,-1 -43.4,-3 -11,-1.5 -21.3,5.7 -24,16.5 -37.3,148.3 -96.4,289.6 -175.5,420 -5.8,9.5 -3.6,21.9 5.1,28.7 12.8,10.1 23.5,19.5 32.7,28.8 67.4,67.6 104.3,157.5 104,253 -0.3,95.4 -37.8,185.1 -105.5,252.4 -139.8,138.8 -366.6,138.2 -505.6,-1.5 -9.3,-9.3 -18.6,-20.1 -28.6,-32.8 -6.8,-8.8 -19,-11.1 -28.6,-5.4 -131,78.4 -272.8,136.6 -421.3,172.9 -10.8,2.7 -17.9,13 -16.6,24 1.9,16.1 2.8,30.3 2.8,43.4 -0.6,196.7 -160.9,356.4 -357.6,356.4 -0.4,0 -0.7,0 -1,0 -95.6,-0.3 -185.2,-37.8 -252.6,-105.5 -67.3,-67.7 -104.2,-157.5 -103.9,-253 0,-13.1 1,-27.3 3,-43.3 1.4,-11.1 -5.7,-21.4 -16.5,-24.1 -148.3,-37.3 -289.7,-96.3 -420.2,-175.5 -9.6,-5.7 -21.8,-3.5 -28.7,5.2 -10,12.7 -19.4,23.4 -28.8,32.7 -139.75,138.9 -366.58,138.2 -505.6,-1.5 -67.34,-67.7 -104.26,-157.6 -103.98,-253 0.3,-95.5 37.74,-185.1 105.47,-252.4 9.3,-9.2 20.04,-18.6 32.83,-28.5 8.77,-6.9 11.07,-19.2 5.35,-28.7 -78.44,-131 -136.67,-272.7 -173.03,-421.1 -2.67,-10.8 -12.83,-18 -23.97,-16.6 -16.07,1.9 -29.91,2.4 -43.41,2.8 -95.52,-0.3 -185.19,-37.8 -252.52,-105.5 -67.31,-67.7 -104.24,-157.5 -103.96,-253 0.28,-95.4 37.72,-185.1 105.44,-252.4 67.49,-67 156.96,-103.9 252.05,-103.9 0.36,0 0.73,0 1.09,0 13.18,0 26.96,1 43.4,3 11.09,1.5 21.34,-5.7 24.05,-16.4 37.29,-148.4 96.35,-289.7 175.53,-420.1 5.78,-9.5 3.55,-21.8 -5.18,-28.7 -12.98,-10.3 -23.36,-19.4 -32.67,-28.7 -67.33,-67.7 -104.26,-157.6 -103.98,-253 0.28,-95.5 37.72,-185.1 105.46,-252.5 139.81,-138.9 366.63,-138.2 505.63,1.6 9.3,9.3 18.6,20 28.6,32.7 4.3,5.6 10.7,8.5 17.3,8.5 z m 803.9,-643.8 c -106.8,0 -207.2,41.5 -283,116.8 -76.1,75.6 -118.2,176.2 -118.5,283.5 0,9.3 0.4,19 1.2,29.4 -139.9,36 -273.8,91 -398.4,163.5 -6.7,-7.9 -13.3,-15.1 -19.9,-21.7 -156.1,-156.9 -410.81,-157.7 -567.86,-1.7 -76.06,75.6 -118.15,176.3 -118.45,283.5 -0.32,107.2 41.16,208.2 116.79,284.2 6.65,6.7 13.7,13.2 21.6,20 -73.31,124.1 -129.08,257.6 -165.99,397.2 -10.83,-0.9 -21.21,-1.6 -30.62,-1.3 -106.82,0 -207.28,41.4 -283.06,116.7 -76.09,75.6 -118.15,176.3 -118.45,283.5 -0.32,107.2 41.16,208.1 116.77,284.2 75.61,76 176.33,118.1 283.6,118.4 9.3,0.4 19.04,-0.4 29.4,-1.2 36.07,139.8 91.07,273.6 163.67,398.2 -7.93,6.7 -15.11,13.3 -21.73,19.8 -76.08,75.7 -118.14,176.3 -118.47,283.5 -0.3,107.3 41.18,208.2 116.79,284.2 156.13,157 410.81,157.7 567.91,1.7 6.6,-6.6 13.2,-13.7 19.9,-21.6 124.3,73.3 257.8,129 397.5,165.9 -0.9,10.3 -1.3,20.1 -1.3,29.4 -0.4,107.2 41.1,208.1 116.7,284.2 75.6,76 176.4,118.1 283.6,118.4 0.4,0 0.8,0 1.2,0 220.9,0 400.9,-179.3 401.6,-400.2 0,-9.4 -0.4,-19.1 -1.2,-29.4 139.9,-36.1 273.7,-91 398.4,-163.6 6.7,7.9 13.3,15.1 19.9,21.7 156,156.9 410.8,157.8 567.8,1.7 76.1,-75.6 118.2,-176.3 118.5,-283.5 0.3,-107.2 -41.1,-208.1 -116.8,-284.2 -6.6,-6.6 -13.7,-13.2 -21.6,-19.9 73.3,-124.2 129.1,-257.6 166,-397.3 10.3,0.9 20,1.3 29.4,1.4 0.4,0 0.8,0 1.2,0 220.9,0 400.9,-179.3 401.5,-400.3 0.3,-107.2 -41.1,-208.1 -116.7,-284.2 -75.7,-76 -176.4,-118 -283.6,-118.3 -9.3,-0.1 -19.1,0.3 -29.4,1.1 -36.1,-139.9 -91.1,-273.7 -163.7,-398.2 8,-6.7 15.2,-13.3 21.7,-19.8 76.1,-75.6 118.2,-176.3 118.5,-283.5 0.3,-107.2 -41.2,-208.2 -116.8,-284.2 -156.1,-157 -410.8,-157.7 -567.9,-1.7 -6.6,6.6 -13.2,13.8 -20,21.6 -124.2,-73.3 -257.7,-129 -397.4,-165.9 0.9,-10.4 1.3,-20.1 1.3,-29.4 0.4,-107.2 -41.1,-208.1 -116.7,-284.2 -75.7,-76 -176.4,-118 -283.6,-118.4 -0.4,0 -0.9,0 -1.3,0"
         style="fill:#000000;fill-opacity:1;fill-rule:nonzero;stroke:none"
         id="path16" />

      <path
         d="m 9050.33,19057.8 c -0.47,0 -0.94,0 -1.41,0 -122.41,-0.4 -237.33,-48.3 -323.62,-135.1 -86.3,-86.8 -133.62,-201.9 -133.25,-324.2 0.72,-252.1 206.15,-456.7 458.2,-456.7 0.45,0 0.88,0 1.35,0 252.65,0.8 457.6,206.8 456.88,459.4 -0.37,122.3 -48.36,237.2 -135.17,323.4 -86.47,86 -201.13,133.2 -322.98,133.2 z m 1.33,-938 h 0.22 z m -1.41,-22 c -276.27,0 -501.41,224.2 -502.22,500.5 -0.39,134.1 51.47,260.4 146.06,355.5 94.59,95.1 220.54,147.6 354.7,148 133.98,0.1 260.38,-51.4 355.55,-145.9 95.15,-94.6 147.76,-220.5 148.15,-354.6 0.82,-276.8 -223.82,-502.7 -500.76,-503.5 -0.5,0 -1.01,0 -1.48,0 z m 1061.15,763.6 h 0.2 z M 8505.66,17710.6 c 3.85,0 7.76,-1 11.29,-3.2 88.59,-53 184.49,-92.4 285.08,-117 10.77,-2.6 17.9,-12.9 16.61,-23.9 -1.29,-11 -1.87,-20.1 -1.82,-28.8 0.17,-63.2 24.95,-122.5 69.76,-167 44.64,-44.4 103.85,-68.8 166.76,-68.8 0.24,0 0.48,0 0.73,0 63.19,0.2 122.54,25 167.09,69.8 44.55,44.8 68.99,104.2 68.8,167.4 -0.02,8.7 -0.67,18.1 -2,28.7 -1.38,11 5.69,21.4 16.48,24.1 100.35,25.2 196.04,65.1 284.37,118.7 9.55,5.8 21.82,3.5 28.7,-5.2 6.66,-8.4 12.89,-15.5 19.02,-21.6 92.53,-91.9 242.61,-91.5 334.58,1 44.59,44.8 68.99,104.2 68.79,167.4 -0.2,63.2 -24.9,122.5 -69.78,167 -6.15,6.1 -13.24,12.3 -21.73,18.9 -8.77,6.8 -11.07,19.1 -5.35,28.6 53.06,88.6 92.46,184.5 117.06,285 2.7,10.8 13.1,17.9 24,16.6 10.9,-1.3 19.5,-1.3 28.8,-1.8 130.4,0.4 236.2,106.8 235.8,237.1 -0.4,130.2 -106.4,235.8 -236.5,235.8 -0.3,0 -0.5,0 -0.8,0 -8.6,0 -17.8,-0.6 -28.7,-2 -10.9,-1.6 -21.4,5.7 -24.1,16.5 -25.2,100.3 -65.12,195.9 -118.72,284.2 -5.78,9.5 -3.55,21.9 5.2,28.8 8.32,6.5 15.41,12.7 21.66,19 44.46,44.7 68.96,104.2 68.76,167.3 -0.2,63.2 -25,122.5 -69.81,167.1 -92.53,91.9 -242.59,91.5 -334.56,-1 -6.16,-6.2 -12.16,-13.1 -18.89,-21.8 -6.81,-8.7 -19.08,-11.1 -28.67,-5.3 -88.66,53 -184.56,92.4 -285.08,117 -10.77,2.7 -17.9,13 -16.62,24 1.27,10.9 1.87,20.1 1.85,28.7 -0.38,130.2 -106.45,235.8 -236.55,235.8 -0.25,0 -0.47,0 -0.73,0 -63.18,-0.2 -122.52,-25 -167.08,-69.8 -44.56,-44.7 -68.99,-104.2 -68.8,-167.4 0.02,-8.6 0.65,-17.7 2,-28.7 1.36,-11 -5.7,-21.3 -16.49,-24 -100.39,-25.3 -196.08,-65.2 -284.37,-118.8 -9.52,-5.7 -21.79,-3.5 -28.69,5.2 -6.66,8.5 -12.89,15.6 -19.02,21.7 -92.55,91.9 -242.63,91.4 -334.58,-1 -44.55,-44.8 -68.99,-104.3 -68.79,-167.4 0.19,-63.2 24.97,-122.5 69.78,-167.1 6.15,-6.1 13.05,-12.1 21.75,-18.8 8.75,-6.9 11.05,-19.2 5.33,-28.7 -53.07,-88.6 -92.46,-184.5 -117.09,-285 -2.67,-10.7 -13.03,-18 -23.94,-16.6 -10.97,1.3 -20.08,1.4 -28.74,1.9 -63.21,-0.2 -122.55,-25 -167.11,-69.8 -44.55,-44.8 -68.97,-104.2 -68.8,-167.4 0.39,-130.2 106.46,-235.8 236.55,-235.8 8.93,0.2 18.19,0.6 29.49,2 10.9,1.6 21.33,-5.7 24.03,-16.4 25.21,-100.4 65.17,-196 118.77,-284.3 5.78,-9.6 3.54,-21.9 -5.22,-28.8 -8.32,-6.5 -15.37,-12.7 -21.58,-18.9 -44.56,-44.8 -68.99,-104.2 -68.8,-167.4 0.17,-63.2 24.96,-122.5 69.79,-167 92.52,-92 242.61,-91.5 334.57,1 6.18,6.2 12.17,13.1 18.88,21.7 4.32,5.5 10.79,8.5 17.38,8.5 z m 547.66,-452.7 c -74.6,0 -144.82,29 -197.75,81.6 -53.15,52.8 -82.56,123.1 -82.77,198.1 -0.02,4.7 0.1,9.6 0.41,14.7 -92.06,24.3 -180.22,60.5 -262.54,107.8 -3.38,-3.8 -6.71,-7.4 -10.06,-10.8 -109.07,-109.6 -287.1,-110.2 -396.82,-1.1 -53.15,52.8 -82.55,123.1 -82.76,198.1 -0.22,74.9 28.75,145.4 81.6,198.5 3.38,3.4 6.92,6.8 10.69,10.1 -47.85,82.1 -84.58,170 -109.36,261.8 -5.4,-0.3 -10.53,-0.4 -15.63,-0.5 -154.3,0 -280.07,125.3 -280.54,279.7 -0.22,74.9 28.75,145.4 81.6,198.5 52.83,53.2 123.22,82.6 198.17,82.8 4.49,0.1 9.63,-0.1 14.74,-0.4 24.25,91.9 60.46,180.1 107.83,262.4 -3.83,3.3 -7.37,6.7 -10.76,10 -53.16,52.9 -82.56,123.2 -82.77,198.1 -0.22,74.9 28.75,145.5 81.6,198.6 109.06,109.7 287.08,110.2 396.82,1.2 3.36,-3.4 6.73,-6.9 10.13,-10.7 82.06,47.8 170.01,84.5 261.89,109.3 -0.33,5.1 -0.5,9.9 -0.5,14.7 -0.21,74.9 28.76,145.5 81.61,198.6 52.83,53.1 123.22,82.5 198.16,82.7 0.29,0 0.58,0 0.86,0 154.32,0 280.1,-125.3 280.57,-279.6 0,-4.8 -0.13,-9.7 -0.43,-14.8 92.01,-24.2 180.16,-60.4 262.54,-107.8 3.37,3.9 6.7,7.4 10.1,10.8 109.03,109.7 287.06,110.3 396.78,1.2 53.17,-52.8 82.57,-123.2 82.77,-198.1 0.2,-74.9 -28.7,-145.5 -81.59,-198.6 -3.4,-3.4 -6.94,-6.7 -10.73,-10.1 47.82,-82.1 84.62,-169.9 109.42,-261.8 5.1,0.4 9.9,0.5 14.7,0.5 0.3,0 0.6,0 0.9,0 154.3,0 280.1,-125.3 280.5,-279.6 0.5,-154.7 -125,-280.9 -279.7,-281.4 -4.7,0.1 -9.7,0.2 -14.8,0.5 -24.2,-92 -60.4,-180.1 -107.81,-262.4 3.82,-3.4 7.39,-6.7 10.81,-10.1 53.1,-52.8 82.5,-123.2 82.7,-198.1 0.2,-74.9 -28.7,-145.4 -81.6,-198.6 -109.06,-109.6 -287.09,-110.2 -396.81,-1.1 -3.35,3.3 -6.73,6.9 -10.12,10.7 -82.1,-47.9 -170.03,-84.6 -261.89,-109.4 0.32,-5 0.49,-9.9 0.49,-14.7 0.22,-74.9 -28.75,-145.4 -81.6,-198.5 -52.83,-53.2 -123.22,-82.6 -198.17,-82.8 -0.27,0 -0.58,0 -0.88,0"
         style="fill:#000000;fill-opacity:1;fill-rule:nonzero;stroke:none"
         id="path20" />
      <path
         d="m 23140,15552.2 c 0,3355.6 -2720.2,6075.8 -6075.8,6075.8 -3355.5,0 -6075.8,-2720.2 -6075.8,-6075.8 0,-2588.9 1619.9,-4798.2 3900.7,-5673.3 V 7184.1 h 4350.2 v 2694.8 c 2280.9,875.1 3900.7,3084.4 3900.7,5673.3"
         style="fill:#ffffff;fill-opacity:1;fill-rule:nonzero;stroke:none"
         id="path22" />
      <path
         d="m 14911.1,7206.1 h 4306.2 V 9879 c 0,9.1 5.6,17.2 14.2,20.5 2324.6,891.9 3886.5,3163.5 3886.5,5652.7 0,3338.1 -2715.7,6053.8 -6053.8,6053.8 -3338,0 -6053.8,-2715.7 -6053.8,-6053.8 0,-2489.1 1561.9,-4760.8 3886.6,-5652.7 8.5,-3.3 14.1,-11.4 14.1,-20.5 z m 4328.2,-44 h -4350.2 c -12.1,0 -22,9.8 -22,22 v 2679.7 c -1133.3,438.1 -2101.9,1197.3 -2801.7,2196.5 -719,1026.6 -1099,2234 -1099,3491.9 0,1628.8 634.3,3160.1 1786,4311.8 1151.8,1151.7 2683.1,1786 4311.8,1786 1628.8,0 3160.1,-634.3 4311.8,-1786 1151.8,-1151.7 1786,-2683 1786,-4311.8 0,-1257.9 -380,-2465.3 -1098.9,-3491.9 -699.8,-999.2 -1668.4,-1758.4 -2801.8,-2196.5 V 7184.1 c 0,-12.2 -9.8,-22 -22,-22"
         style="fill:#000000;fill-opacity:1;fill-rule:nonzero;stroke:none"
         id="path24" />
      <path
         d="m 17018.2,3360.5 c -225.7,0 -434.4,43.4 -625,130.1 -645,293.6 -851.5,993.5 -853.5,1000.5 -1.9,6.7 -0.6,13.8 3.6,19.3 4.1,5.5 10.6,8.8 17.5,8.8 h 3624.5 v 1363.4 h -4264.1 c -12.2,0 -22.1,9.8 -22.1,22 0,12.2 9.9,22 22.1,22 h 4286.1 c 12.2,0 22,-9.8 22,-22 V 4497.2 c 0,-12.2 -9.8,-22.1 -22,-22.1 h -3616.2 c 45.5,-131.8 267.1,-692.9 820.7,-944.6 460.8,-209.5 1032.3,-157.4 1698.6,154.9 11.1,5.2 24.1,0.4 29.3,-10.5 5.2,-11 0.4,-24.1 -10.6,-29.3 -405.2,-189.9 -776.7,-285.1 -1110.9,-285.1"
         style="fill:#000000;fill-opacity:1;fill-rule:nonzero;stroke:none"
         id="path26" />
      <path
         d="m 16719,8888.3 c -10.2,0 -19.4,7.2 -21.5,17.7 l -1706.6,8366.1 c -2.4,11.9 5.3,23.5 17.2,26 11.9,2.4 23.5,-5.3 26,-17.2 l 1706.5,-8366.1 c 2.4,-11.9 -5.3,-23.6 -17.2,-26 -1.4,-0.3 -2.9,-0.5 -4.4,-0.5"
         style="fill:#000000;fill-opacity:1;fill-rule:nonzero;stroke:none"
         id="path28" />
      <path
         d="m 17409.4,8888.3 c -1.4,0 -2.9,0.2 -4.4,0.5 -11.9,2.4 -19.6,14.1 -17.1,26 l 1706.5,8366.1 c 2.5,11.9 14.2,19.6 26,17.2 11.9,-2.5 19.6,-14.1 17.1,-26 L 17431,8906 c -2.2,-10.5 -11.3,-17.7 -21.6,-17.7"
         style="fill:#000000;fill-opacity:1;fill-rule:nonzero;stroke:none"
         id="path30" />
      <path
         d="m 16866,16530.2 c -0.9,0 -1.7,0 -2.6,0.2 -9.7,1.1 -17.5,8.6 -19.1,18.2 l -257.2,1566.8 -474.6,-956.6 c -3.7,-7.5 -11.3,-12.2 -19.7,-12.2 h -492 c -12.2,0 -22,9.8 -22,22 0,12.1 9.8,22 22,22 h 478.4 l 498.9,1005.6 c 4.2,8.6 13.3,13.4 22.9,12 9.5,-1.4 16.9,-8.8 18.5,-18.2 l 255.9,-1559.1 586.7,1388.3 c 3.5,8.4 10.7,13.7 20.9,13.5 9.1,-0.3 17.1,-6.1 20.1,-14.7 l 292.2,-827.4 h 669.7 c 12.2,0 22,-9.9 22,-22 0,-12.2 -9.8,-22 -22,-22 h -685.3 c -9.3,0 -17.6,5.8 -20.7,14.6 l -278.5,788.6 -594.2,-1406.2 c -3.5,-8.2 -11.5,-13.4 -20.3,-13.4"
         style="fill:#000000;fill-opacity:1;fill-rule:nonzero;stroke:none"
         id="path32" />
      <path
         d="m 19919.3,19802.1 c -4.2,0 -8.5,1.2 -12.2,3.7 -843.5,565.6 -1826.5,864.5 -2842.9,864.5 -1016.3,0 -1999.3,-298.9 -2842.8,-864.5 -10.1,-6.7 -23.8,-4.1 -30.5,6 -6.8,10.1 -4.1,23.8 6,30.6 850.7,570.4 1842.3,871.9 2867.3,871.9 1025.1,0 2016.6,-301.5 2867.4,-871.9 10.1,-6.8 12.7,-20.5 6,-30.6 -4.3,-6.3 -11.2,-9.7 -18.3,-9.7"
         style="fill:#000000;fill-opacity:1;fill-rule:nonzero;stroke:none"
         id="path34" />
      <path
         d="m 19647.5,19528.9 571.8,548.7 -571.8,-548.7"
         style="fill:#ffffff;fill-opacity:1;fill-rule:nonzero;stroke:none"
         id="path36" />
      <path
         d="m 19647.5,19506.9 c -5.7,0 -11.5,2.3 -15.8,6.8 -8.4,8.7 -8.2,22.7 0.6,31.1 l 571.7,548.7 c 8.8,8.4 22.8,8.1 31.2,-0.7 8.4,-8.7 8.1,-22.7 -0.7,-31.1 l -571.7,-548.7 c -4.3,-4.1 -9.8,-6.1 -15.3,-6.1"
         style="fill:#000000;fill-opacity:1;fill-rule:nonzero;stroke:none"
         id="path38" />
      <path
         d="m 14495,19528.9 -571.7,548.7 571.7,-548.7"
         style="fill:#ffffff;fill-opacity:1;fill-rule:nonzero;stroke:none"
         id="path40" />
      <path
         d="m 14495,19506.9 c -5.5,0 -11,2 -15.2,6.1 l -571.7,548.7 c -8.8,8.4 -9.1,22.4 -0.7,31.1 8.4,8.8 22.4,9.1 31.1,0.7 l 571.8,-548.7 c 8.7,-8.4 9,-22.4 0.6,-31.1 -4.3,-4.5 -10.1,-6.8 -15.9,-6.8"
         style="fill:#000000;fill-opacity:1;fill-rule:nonzero;stroke:none"
         id="path42" />
      <path
         d="M 30616.6,5086.5 C 29330.9,4929.9 28431.7,4162 28431.7,4162 l -761,-508.9 c -126.2,-84.4 -66.5,-281.1 85.3,-281.1 h 1341.4 c 235.9,0 465.2,77.4 652.9,220.2 l 820.9,624.8 c 172.9,131.6 238.6,361.3 161.3,564.5 l -115.9,305"
         style="fill:#ffffff;fill-opacity:1;fill-rule:nonzero;stroke:none"
         id="path44" />
      <path
         d="m 28431.7,4162 h 0.2 z m 2170.4,900.5 c -1255.4,-158.7 -2147.2,-909.6 -2156.1,-917.2 -0.6,-0.6 -1.3,-1.1 -2,-1.6 l -761.1,-508.9 c -59.8,-40 -65.8,-104.5 -52.7,-147.5 13,-43 53.8,-93.3 125.8,-93.3 h 1341.4 c 229.7,0 456.8,76.6 639.6,215.7 l 820.8,624.8 c 164,124.8 227.4,346.5 154.2,539.2 z M 29097.4,3350 H 27756 c -79,0 -145,48.9 -167.9,124.5 -23,75.7 4.6,153 70.4,196.9 l 760,508.2 c 35.9,30.2 937.5,775.5 2195.4,928.7 9.8,1.4 19.6,-4.5 23.2,-14 l 116,-305 c 80.2,-210.7 10.8,-453.3 -168.6,-589.9 l -820.9,-624.7 C 29573.3,3429.8 29336.7,3350 29097.4,3350"
         style="fill:#000000;fill-opacity:1;fill-rule:nonzero;stroke:none"
         id="path46" />
      <path
         d="M 27160.1,14176.2 24742.8,13368.4 28431.7,4162 c 0,0 1138.1,32 2184.9,924.5 l -3456.5,9089.7"
         style="fill:#645CFF;fill-opacity:1;fill-rule:nonzero;stroke:none"
         id="path48" />
      <path
         d="m 22678.3,3723.2 c -139.9,-121.3 -54.1,-351.2 131.1,-351.2 h 2183.2 c 237.4,0 436.8,178.9 462.4,415 l 37.6,346.6 c -1046.1,321.3 -2117.2,194.3 -2117.2,194.3 l -697.1,-604.7"
         style="fill:#ffffff;fill-opacity:1;fill-rule:nonzero;stroke:none"
         id="path50" />
      <path
         d="m 22678.3,3723.2 h 0.2 z m 706.3,583.6 -691.9,-600.2 c -68.8,-59.7 -71,-140.8 -50.1,-196.8 20.9,-56 75.6,-115.8 166.8,-115.8 h 2183.2 c 226.7,0 416.1,170 440.5,395.3 l 35.7,328.6 c -981.6,296.7 -1992.6,198.7 -2084.2,188.9 z m 1608,-956.8 h -2183.2 c -95.1,0 -174.8,55.3 -208.1,144.4 -33.2,89.1 -9.3,183.1 62.6,245.4 l 697.1,604.8 c 3.3,2.8 7.4,4.7 11.8,5.2 10.8,1.2 1087.7,123.8 2126.3,-195.2 10.1,-3.1 16.5,-12.9 15.4,-23.4 l -37.6,-346.6 C 25450,3536.8 25241.8,3350 24992.6,3350"
         style="fill:#000000;fill-opacity:1;fill-rule:nonzero;stroke:none"
         id="path52" />
      <path
         d="m 27752.8,12741 c 129.8,256.8 169.4,549.9 112.4,832 l -84,415.4 -1903.6,-233.2 -1553.6,-3408.3 c -183.2,-401.9 -304.2,-829.4 -358.6,-1267.8 l -590,-4751.2 c 0,0 1067,-182.9 2117.2,-194.3 l 571.4,5265.2 1688.8,3342.2"
         style="fill:#645CFF;fill-opacity:1;fill-rule:nonzero;stroke:none"
         id="path54" />
      <path
         d="m 26214.2,9674.2 c -3.3,0 -6.7,0.7 -9.9,2.3 -10.9,5.5 -15.2,18.7 -9.7,29.6 l 1388,2746.7 c 5.5,10.9 18.7,15.2 29.6,9.7 10.8,-5.4 15.2,-18.7 9.7,-29.5 l -1388,-2746.8 c -3.9,-7.6 -11.7,-12 -19.7,-12"
         style="fill:#ffffff;fill-opacity:1;fill-rule:nonzero;stroke:none"
         id="path56" />
      <path
         d="m 25279.4,12420.9 c -3.1,0 -6.1,0.6 -9.1,2 -11.1,5 -15.9,18.1 -10.9,29.1 l 353.6,775.7 c 5,11 18,15.9 29.1,10.9 11.1,-5.1 16,-18.1 10.9,-29.2 l -353.5,-775.6 c -3.7,-8.1 -11.7,-12.9 -20.1,-12.9"
         style="fill:#ffffff;fill-opacity:1;fill-rule:nonzero;stroke:none"
         id="path58" />
      <path
         d="m 22460.6,16397.1 1000,782.1 c 222.5,174 477.5,301.9 750.4,374.8 740.3,197.8 2244.2,517.5 2998.7,96.4 l 301.8,-1318.3 -5050.9,65"
         style="fill:#ffffff;fill-opacity:1;fill-rule:nonzero;stroke:none"
         id="path60" />
      <path
         d="m 22523.5,16418.3 4960.3,-63.8 -293.4,1281.4 c -738.7,403.9 -2179,109.2 -2973.7,-103.1 -270.3,-72.3 -520.1,-197 -742.5,-371 z m 4988,-108.2 c -0.1,0 -0.2,0 -0.3,0 l -5050.9,65 c -9.3,0.1 -17.5,6.1 -20.5,14.9 -3,8.9 -0.1,18.7 7.2,24.4 l 1000.1,782.1 c 227,177.6 482.1,305 758.2,378.8 804.2,214.9 2265.4,512.8 3015.1,94.4 5.4,-3.1 9.4,-8.3 10.7,-14.3 l 301.8,-1318.3 c 1.5,-6.6 -0.1,-13.5 -4.3,-18.8 -4.2,-5.2 -10.5,-8.2 -17.1,-8.2"
         style="fill:#000000;fill-opacity:1;fill-rule:nonzero;stroke:none"
         id="path62" />
      <path
         d="m 29369.8,13272.2 h -9450.5 v 3414.9 h 9450.5 v -3414.9"
         style="fill:#ffffff;fill-opacity:1;fill-rule:nonzero;stroke:none"
         id="path64" />
      <path
         d="m 19941.3,13294.2 h 9406.5 V 16665 h -9406.5 z m 9428.5,-44 h -9450.5 c -12.2,0 -22,9.8 -22,22 v 3414.9 c 0,12.1 9.8,22 22,22 h 9450.5 c 12.2,0 22,-9.9 22,-22 v -3414.9 c 0,-12.2 -9.8,-22 -22,-22"
         style="fill:#000000;fill-opacity:1;fill-rule:nonzero;stroke:none"
         id="path66" />
      <path
         d="m 22060.3,14979.6 v 1288.5 c -707.2,0 -1280.5,-576.9 -1280.5,-1288.5 0,-711.6 573.3,-1288.5 1280.5,-1288.5 707.2,0 1280.5,576.9 1280.5,1288.5 0,215.1 -52.5,417.8 -145.1,596.1 l -1135.4,-596.1"
         style="fill:#ffffff;fill-opacity:1;fill-rule:nonzero;stroke:none"
         id="path68" />
      <path
         d="m 23195.7,15575.7 -1135.4,692.4 c -707.2,0 -1280.5,-576.9 -1280.5,-1288.5 0,-711.6 573.3,-1288.5 1280.5,-1288.5 707.2,0 1280.5,576.9 1280.5,1288.5 0,215.1 -52.5,417.8 -145.1,596.1"
         style="fill:#e2eaff;fill-opacity:1;fill-rule:nonzero;stroke:none"
         id="path70" />
      <path
         d="m 23195.7,15575.7 c -213.8,411.5 -642,692.4 -1135.4,692.4 v -1288.5 l 1135.4,596.1"
         style="fill:#645CFF;fill-opacity:1;fill-rule:nonzero;stroke:none"
         id="path72" />
      <path
         d="m 22825.6,14979.6 c 0,-422.7 -342.6,-765.3 -765.3,-765.3 -422.7,0 -765.3,342.6 -765.3,765.3 0,422.7 342.6,765.3 765.3,765.3 422.7,0 765.3,-342.6 765.3,-765.3"
         style="fill:#ffffff;fill-opacity:1;fill-rule:nonzero;stroke:none"
         id="path74" />
      <path
         d="M 27877.5,15647.9 H 25496 c -12.1,0 -22,9.8 -22,22 0,12.1 9.9,22 22,22 h 2381.5 c 12.1,0 22,-9.9 22,-22 0,-12.2 -9.9,-22 -22,-22"
         style="fill:#000000;fill-opacity:1;fill-rule:nonzero;stroke:none"
         id="path76" />
      <path
         d="m 24750.4,15647.9 h -1122 c -12.2,0 -22,9.8 -22,22 0,12.1 9.8,22 22,22 h 1122 c 12.2,0 22,-9.9 22,-22 0,-12.2 -9.8,-22 -22,-22"
         style="fill:#000000;fill-opacity:1;fill-rule:nonzero;stroke:none"
         id="path78" />
      <path
         d="m 27877.5,15187.7 h -1252.1 c -12.1,0 -22,9.8 -22,22 0,12.2 9.9,22 22,22 h 1252.1 c 12.1,0 22,-9.8 22,-22 0,-12.2 -9.9,-22 -22,-22"
         style="fill:#000000;fill-opacity:1;fill-rule:nonzero;stroke:none"
         id="path80" />
      <path
         d="m 25912.7,15187.7 h -2284.3 c -12.2,0 -22,9.8 -22,22 0,12.2 9.8,22 22,22 h 2284.3 c 12.2,0 22,-9.8 22,-22 0,-12.2 -9.8,-22 -22,-22"
         style="fill:#000000;fill-opacity:1;fill-rule:nonzero;stroke:none"
         id="path82" />
      <path
         d="m 27877.5,14727.5 h -2567.9 c -12.1,0 -22,9.9 -22,22 0,12.2 9.9,22 22,22 h 2567.9 c 12.1,0 22,-9.8 22,-22 0,-12.1 -9.9,-22 -22,-22"
         style="fill:#000000;fill-opacity:1;fill-rule:nonzero;stroke:none"
         id="path84" />
      <path
         d="m 24644.6,14727.5 h -1016.2 c -12.2,0 -22,9.9 -22,22 0,12.2 9.8,22 22,22 h 1016.2 c 12.1,0 22,-9.8 22,-22 0,-12.1 -9.9,-22 -22,-22"
         style="fill:#000000;fill-opacity:1;fill-rule:nonzero;stroke:none"
         id="path86" />
      <path
         d="m 27877.5,14267.4 h -1283.9 c -12.2,0 -22.1,9.8 -22.1,22 0,12.1 9.9,22 22.1,22 h 1283.9 c 12.1,0 22,-9.9 22,-22 0,-12.2 -9.9,-22 -22,-22"
         style="fill:#000000;fill-opacity:1;fill-rule:nonzero;stroke:none"
         id="path88" />
      <path
         d="m 26033.3,14267.4 h -2404.9 c -12.2,0 -22,9.8 -22,22 0,12.1 9.8,22 22,22 h 2404.9 c 12.2,0 22,-9.9 22,-22 0,-12.2 -9.8,-22 -22,-22"
         style="fill:#000000;fill-opacity:1;fill-rule:nonzero;stroke:none"
         id="path90" />
      <path
         d="m 22402.4,13272.2 c 0,0 -168.8,-431.2 -863.9,-454.1 -695.1,-22.9 -786.6,211.6 -886.7,417.6 -100.1,206 -85.8,380.4 28.6,354.7 0,0 8.6,270.1 274.6,100.7 0,0 103,165.3 303.2,-49.2 0,0 194.5,119.9 406.2,-357.7 l 738,-12"
         style="fill:#ffffff;fill-opacity:1;fill-rule:nonzero;stroke:none"
         id="path92" />
      <path
         d="m 20659.1,13570.9 c -14.2,0 -25.2,-5.2 -33.4,-15.6 -32.3,-40.7 -26.9,-160.3 45.9,-310 l 9,-18.5 c 96.9,-200.8 196.9,-408.3 857.2,-386.7 565,18.6 775.8,315 829.3,410.6 l -703.1,11.5 c -8.6,0.1 -16.2,5.2 -19.7,13.1 -111,250.3 -214.5,328.7 -281.7,350.4 -56.5,18.2 -91.6,-1.8 -93.1,-2.7 -8.9,-5.2 -20.4,-3.6 -27.4,3.9 -67.2,72 -131.1,107.5 -185,102.6 -54.1,-5 -82.3,-48.3 -83.5,-50.1 -6.5,-10.3 -20.2,-13.4 -30.4,-6.8 -77.2,49.1 -139.3,64 -179.5,42.8 -57.3,-30.1 -61.3,-124.8 -61.3,-125.7 -0.2,-6.6 -3.4,-12.7 -8.6,-16.7 -5.2,-4 -11.9,-5.5 -18.2,-4.1 -5.9,1.4 -11.4,2 -16.5,2 z m 788.9,-776.4 c -607.7,0 -713.3,218.9 -807.1,413.1 l -8.9,18.5 c -73.5,151.2 -90,294.5 -40.8,356.5 16.8,21.2 40.4,32.3 68,32.3 0.6,0 1.1,0 1.5,0 5.5,37.3 23.6,108.3 82.3,139.4 52.3,27.7 121.9,16.1 206.9,-34.2 17.4,19.2 51.4,48.1 102.4,53.1 65.9,6.5 136.8,-28.9 211.1,-104.9 20.9,7.5 59.9,15.7 110.3,0 108.9,-33.7 211.5,-155.6 305,-362.3 l 724.1,-11.8 c 7.2,-0.1 13.9,-3.8 17.9,-9.8 4,-6 4.8,-13.5 2.2,-20.2 -7.1,-18.2 -182.2,-445 -883.6,-468.1 -31.7,-1.1 -62.1,-1.6 -91.3,-1.6"
         style="fill:#000000;fill-opacity:1;fill-rule:nonzero;stroke:none"
         id="path94" />
      <path
         d="m 21463.2,13040.8 c -7.5,0 -14.9,3.8 -19,10.8 -78.9,133.1 -152.3,271.8 -218.2,412.3 -11.1,23.8 -25,53.4 -28.5,85.7 -4.2,38.1 7.7,73.7 31.9,95.4 9,8.1 22.9,7.4 31.1,-1.7 8.1,-9.1 7.3,-23 -1.7,-31.1 -13.5,-12 -20.2,-34.1 -17.6,-57.7 2.6,-23.3 12.3,-45.4 24.7,-71.9 65.2,-139.2 138,-276.7 216.2,-408.6 6.2,-10.4 2.7,-23.9 -7.7,-30.1 -3.6,-2.1 -7.4,-3.1 -11.2,-3.1"
         style="fill:#000000;fill-opacity:1;fill-rule:nonzero;stroke:none"
         id="path96" />
      <path
         d="m 21202,13028.1 c -7.9,0 -15.5,4.3 -19.5,11.7 l -231.1,433.7 c -16.5,30.9 -35.2,66 -42.7,104.5 -9.1,45.9 0,89.5 25,119.7 7.7,9.3 21.5,10.7 30.9,2.9 9.4,-7.7 10.7,-21.6 3,-31 -16.3,-19.6 -22.1,-50.7 -15.7,-83.1 6.3,-32.1 22.6,-62.7 38.4,-92.3 l 231.1,-433.7 c 5.7,-10.7 1.7,-24.1 -9.1,-29.8 -3.3,-1.7 -6.8,-2.6 -10.3,-2.6"
         style="fill:#000000;fill-opacity:1;fill-rule:nonzero;stroke:none"
         id="path98" />
      <path
         d="m 20968.9,12964.1 c -7,0 -13.9,3.3 -18.1,9.5 -130.3,187.8 -228.2,394.5 -291,614.3 -3.3,11.7 3.5,23.9 15.1,27.2 11.7,3.2 23.9,-3.4 27.3,-15.1 61.4,-215.1 157.2,-417.5 284.7,-601.3 7,-10 4.5,-23.7 -5.5,-30.7 -3.8,-2.6 -8.2,-3.9 -12.5,-3.9"
         style="fill:#000000;fill-opacity:1;fill-rule:nonzero;stroke:none"
         id="path100" />
      <path
         d="m 28200.6,13818.8 c 0,0 -233,-675.1 -689.1,-756 0,0 -253.5,-82.4 -362.2,-12.6 0,0 -173.2,-129.6 -287.8,12.6 0,0 -317.1,-184.5 -499.2,209.4 h 182.1 l 211.4,200.1 c 0,0 -666,-65.4 -698.9,182 -23.6,177.6 851.6,164.5 851.6,164.5 h 1292.1"
         style="fill:#ffffff;fill-opacity:1;fill-rule:nonzero;stroke:none"
         id="path102" />
      <path
         d="m 26544.4,13250.2 c -5.8,0 -11.7,2.3 -16,6.8 -8.3,8.9 -8,22.8 0.9,31.2 l 166.5,157.6 c -170.8,-9.6 -631.3,-15 -660.7,205.6 -2.9,22.3 4.2,43.8 20.6,62.3 119.4,134.2 778.5,128.3 853.1,127.1 h 1291.8 c 7.1,0 13.8,-3.5 17.9,-9.3 4.1,-5.7 5.2,-13.2 2.9,-19.9 -4.3,-12.5 -108.2,-309.1 -314.6,-534.1 -8.2,-9 -22.2,-9.6 -31.1,-1.4 -8.9,8.2 -9.5,22.1 -1.3,31.1 163.3,178 262.8,409 294.4,489.6 h -1260.3 c -197.7,2.9 -730.2,-11.5 -819.9,-112.4 -10.5,-11.8 -10.6,-21.2 -9.8,-27.2 24.6,-185.7 495.6,-180.6 674.9,-163 9.3,0.9 18.2,-4.3 22.1,-12.8 3.9,-8.5 2,-18.7 -4.8,-25.1 l -211.5,-200.1 c -4.2,-4 -9.7,-6 -15.1,-6"
         style="fill:#000000;fill-opacity:1;fill-rule:nonzero;stroke:none"
         id="path104" />
      <path
         d="m 26846.4,13039.1 c -7.8,0 -15.3,4.1 -19.3,11.3 -5.9,10.7 -2,24.1 8.6,29.9 132.7,73.2 251.8,175.3 344.5,295.2 7.5,9.6 21.3,11.3 30.9,3.9 9.6,-7.4 11.4,-21.3 4,-30.9 -96.4,-124.6 -220.2,-230.6 -358.1,-306.7 -3.4,-1.9 -7,-2.7 -10.6,-2.7"
         style="fill:#000000;fill-opacity:1;fill-rule:nonzero;stroke:none"
         id="path106" />
      <path
         d="m 27137.1,13022.6 c -7.5,0 -14.8,3.9 -19,10.9 -6.1,10.4 -2.6,23.9 7.9,30.1 124.2,73 232.7,167.3 322.5,280 7.6,9.5 21.5,11.1 31,3.5 9.5,-7.6 11,-21.4 3.5,-30.9 -93.2,-117 -205.8,-214.7 -334.7,-290.6 -3.5,-2 -7.4,-3 -11.2,-3"
         style="fill:#000000;fill-opacity:1;fill-rule:nonzero;stroke:none"
         id="path108" />
      <path
         d="m 27474.4,13031.6 c -7.2,0 -14.3,3.5 -18.5,10 -6.6,10.2 -3.7,23.8 6.5,30.5 120.1,77.9 223,183.7 297.7,305.8 6.3,10.4 19.9,13.7 30.2,7.3 10.4,-6.3 13.7,-19.9 7.3,-30.2 -78.1,-127.8 -185.7,-238.4 -311.3,-319.9 -3.7,-2.4 -7.8,-3.5 -11.9,-3.5"
         style="fill:#000000;fill-opacity:1;fill-rule:nonzero;stroke:none"
         id="path110" />
      <path
         d="m 26764.4,13817.9 h 1564.9 c 0,0 393,1267.1 417.8,2095.6 24.8,828.5 -846.8,1641.7 -2027.2,1900.7 l -606.9,-838.5 974.1,-957.1 c 68.9,-67.7 98.7,-165.8 79.1,-260.4 l -401.8,-1940.3"
         style="fill:#ffffff;fill-opacity:1;fill-rule:nonzero;stroke:none"
         id="path112" />
      <path
         d="m 28329.3,13795.9 h -1564.9 c -6.6,0 -12.9,3 -17,8.1 -4.2,5.1 -5.9,11.9 -4.5,18.4 l 401.7,1940.2 c 18.2,87.7 -9.1,177.5 -73,240.3 l -974.1,957.1 c -8.6,8.5 -8.7,22.4 -0.2,31.1 8.5,8.7 22.4,8.8 31.1,0.3 l 974.1,-957.1 c 74.6,-73.3 106.5,-178.2 85.3,-280.6 l -396.3,-1913.8 H 28313 c 44.7,147.4 389.2,1307.4 412.1,2074.3 24.4,814.1 -839.7,1621.7 -2009.9,1878.5 -11.9,2.6 -19.4,14.4 -16.8,26.2 2.6,11.9 14.5,19.3 26.2,16.8 1190.5,-261.3 2069.5,-1087.9 2044.5,-1922.9 -24.6,-821.9 -414.8,-2088.7 -418.7,-2101.4 -2.9,-9.2 -11.4,-15.5 -21.1,-15.5"
         style="fill:#000000;fill-opacity:1;fill-rule:nonzero;stroke:none"
         id="path114" />
      <path
         d="m 24307.5,19152.1 c -54,127.7 -57.9,283.5 19.9,398.3 88.9,131.1 257.6,179.1 414.1,203.5 200,31.1 415.5,36.5 592.7,-61.3 119.1,-65.8 211.3,-174.3 272,-296.1 104.4,-209.6 116.1,-468.7 9,-677 -107.1,-208.2 -338.4,-352.9 -571.9,-335.6 -179.4,13.3 -349.2,129.6 -427.6,291.3 -45,93 -47.4,141.4 -121.7,215.9 -75.7,76 -144.4,161.6 -186.5,261"
         style="fill:#000000;fill-opacity:1;fill-rule:nonzero;stroke:none"
         id="path116" />
      <path
         d="m 24576,18098 c 9.9,-19.7 268.2,-411.7 268.2,-411.7 0,0 -253.8,-168.3 -134.1,-300.1 119.7,-131.8 593.7,72.8 747.2,403.9 l -380.4,592.4 -500.9,-284.5"
         style="fill:#ffffff;fill-opacity:1;fill-rule:nonzero;stroke:none"
         id="path118" />
      <path
         d="m 24576,18098 h 0.2 z m 30.6,-7.9 c 38.6,-60.9 167.2,-256.9 255.9,-391.7 6.7,-10.1 3.9,-23.7 -6.2,-30.4 -1.4,-1 -143.7,-96.6 -155.5,-191.9 -3.5,-27.7 4.9,-52.3 25.6,-75.1 26.8,-29.5 80,-39.9 150,-29.1 184.7,28.1 447,194.8 555.7,416.6 l -362.4,564.5 z m 218.9,-766.4 c -58.1,0 -103,16.1 -131.7,47.7 -29.4,32.4 -41.8,69.5 -36.7,110.2 11.6,93.3 114.6,178.8 157,210.3 -61.2,93 -248.5,377.8 -257.8,396.3 -5.2,10.5 -1.3,23.2 8.8,29 l 501,284.4 c 10.2,5.8 23,2.6 29.4,-7.3 l 380.3,-592.4 c 4.1,-6.3 4.6,-14.3 1.4,-21.1 -113,-243.7 -390.9,-421.4 -594.2,-452.5 -20.4,-3.1 -39.6,-4.6 -57.5,-4.6"
         style="fill:#000000;fill-opacity:1;fill-rule:nonzero;stroke:none"
         id="path120" />
      <path
         d="m 25101.7,18232.8 c 0,0 -286.5,-436 -702.9,-256.6 -324.7,140 104,971 156.4,1047 0,0 211,-107.1 367.6,-66.9 156.6,40.1 259.3,129.5 348.6,17.8 89.3,-111.6 -279.1,-310.3 -89.3,-428.7 0,0 236.7,125 323.7,-31.2 87.1,-156.3 -229.9,-377.4 -404.1,-281.4"
         style="fill:#ffffff;fill-opacity:1;fill-rule:nonzero;stroke:none"
         id="path122" />
      <path
         d="m 24563.3,18994.9 c -70.9,-117.9 -321.9,-635.9 -250.3,-884.5 16.2,-56.2 47.1,-93.5 94.5,-114 394.5,-169.9 664.5,231.3 675.8,248.5 6.3,9.6 19,12.7 29,7.2 96,-52.9 243.6,3.1 325.4,85.3 27.3,27.4 86.6,98.4 48.9,166 -75.7,136 -292,23.7 -294.2,22.6 -7,-3.7 -15.3,-3.4 -22,0.7 -36.2,22.6 -57.6,50.5 -63.7,82.8 -11.9,63.9 37.6,129.9 85.4,193.8 54.9,73.2 88.8,123.6 62.1,157.1 -53.7,67.1 -106.5,51.3 -211.5,12.2 -34,-12.6 -72.5,-26.9 -114.4,-37.7 -137.4,-35.2 -309.2,34.6 -365,60 z m 35.2,-1083.7 c -65.1,0 -134.8,13.1 -208.4,44.8 -59.5,25.6 -99.7,73.5 -119.4,142.2 -85.1,295.4 234.3,891 266.4,937.5 6.2,9 18.1,12.1 28,7.1 2.1,-1 205.6,-102.9 352.2,-65.2 39.8,10.2 75.5,23.5 110.1,36.3 99.4,37 185.3,68.9 261.2,-26 50,-62.6 -6.6,-138 -61.3,-211 -42.1,-56.3 -85.7,-114.4 -77.3,-159.3 3.2,-17.2 14.3,-32.6 33.7,-46.7 92.4,44.8 267.5,86.6 341.4,-46 36.2,-65.1 15.2,-146.8 -56.2,-218.6 -90.4,-90.7 -245.8,-150.2 -360.1,-101.4 -47.1,-63.2 -237.8,-293.7 -510.3,-293.7"
         style="fill:#000000;fill-opacity:1;fill-rule:nonzero;stroke:none"
         id="path124" />
      <path
         d="m 25341.3,18354.1 c -3.7,0 -7.6,1 -11.1,3 -39.5,23.2 -89.9,25.7 -131.6,6.4 -10.9,-5.2 -24,-0.3 -29.2,10.7 -5.1,11 -0.3,24.1 10.8,29.2 54.4,25.3 120.5,22.1 172.3,-8.3 10.5,-6.2 14,-19.7 7.8,-30.1 -4,-7 -11.4,-10.9 -19,-10.9"
         style="fill:#000000;fill-opacity:1;fill-rule:nonzero;stroke:none"
         id="path126" />
      <path
         d="m 27756,3350 h -7148.8 c -12.2,0 -22,9.8 -22,22 0,12.2 9.8,22 22,22 H 27756 c 12.2,0 22,-9.8 22,-22 0,-12.2 -9.8,-22 -22,-22"
         style="fill:#000000;fill-opacity:1;fill-rule:nonzero;stroke:none"
         id="path128" />
      <path
         d="m 7014.8,18537.6 c -10.85,90.1 -37.51,179.6 -91.13,254 -47.23,65.4 -112.17,115.8 -183.04,153.4 -156.87,83.4 -343.27,106.1 -518.59,104.7 -172.88,-1.4 -347.56,-25.4 -512.41,-78.5 -202.06,-65.1 -389.47,-176.2 -558.17,-303.6 -355.73,-268.6 -648.08,-617.6 -932.32,-958 -310.72,-372.1 -595.39,-785.4 -752.07,-1247.9 -69.52,-205.2 -125.51,-428.9 -94.41,-646.7 25.96,-181.7 110.55,-350.4 235.76,-484.1 128.71,-137.4 292.73,-238.4 468.63,-303.7 244.6,-90.9 505.01,-109.2 763.76,-107.6 130.32,0.8 260.58,5.6 390.91,5.8 87.11,0.1 173.64,-0.1 260.56,6.7 184.36,14.7 370.65,47 543.79,113.6 156.9,60.4 307.28,152.2 387.97,304.9 73.99,140.1 93.56,302.2 90.83,461 12.87,57.3 27.74,114.4 40.06,171.5 28.02,130 49.15,261.4 74.73,391.9 53.3,272 131.64,538.6 189.24,809.8 53.51,252 91.94,506 138.14,759.2 35.46,194.4 81.68,394.9 57.76,593.6"
         style="fill:#000000;fill-opacity:1;fill-rule:nonzero;stroke:none"
         id="path130" />
      <path
         d="m 5790.63,17824.1 -309.35,-1046.2 c 0,0 592.09,-729.8 1038.25,-701 446.17,28.8 363.04,533.8 30.58,690.6 l -238.3,36.5 95.97,816.1 -617.15,204"
         style="fill:#ffffff;fill-opacity:1;fill-rule:nonzero;stroke:none"
         id="path132" />
      <path
         d="m 6293.8,16713.8 c -0.93,0 -1.87,0 -2.84,0.1 -12.06,1.6 -20.57,12.6 -19.02,24.7 l 111.68,866.3 -578.2,191.1 -259.61,-895.1 c -3.38,-11.6 -15.57,-18.4 -27.26,-15 -11.67,3.4 -18.39,15.6 -15,27.3 l 265.95,917 c 1.66,5.7 5.59,10.6 10.88,13.4 5.24,2.8 11.48,3.3 17.15,1.4 l 617.14,-204 c 10.02,-3.3 16.27,-13.3 14.94,-23.7 l -114,-884.4 c -1.44,-11 -10.89,-19.1 -21.81,-19.1"
         style="fill:#000000;fill-opacity:1;fill-rule:nonzero;stroke:none"
         id="path134" />
      <path
         d="m 6506.32,16752.2 c -1.1,0 -2.24,0.1 -3.36,0.3 l -177.1,27.1 c -12.01,1.9 -20.26,13.1 -18.41,25.1 1.82,12 13.06,20.2 25.08,18.4 l 177.1,-27.1 c 12.01,-1.9 20.26,-13.1 18.42,-25.1 -1.66,-10.9 -11.05,-18.7 -21.73,-18.7"
         style="fill:#000000;fill-opacity:1;fill-rule:nonzero;stroke:none"
         id="path136" />
      <path
         d="m 6719.65,18159.4 c 22.47,-122.6 23.07,-251.6 -18.33,-369.1 -41.39,-117.5 -128.57,-222.2 -244.93,-266.7 -100.89,-38.6 -216.36,-29.3 -316.02,12.3 -99.67,41.7 -184.52,113.6 -253.78,196.5 -106.43,-37.8 -236.08,6.3 -297.38,101.1 -35.37,54.8 -47.81,127.5 -18.94,186 28.88,58.4 104.89,93.3 163.81,65.5 33.58,-15.9 57.46,-48.3 91.67,-62.7 38.14,-16.1 83.64,-6.6 118.01,16.5 34.36,23.1 59.05,58 78.74,94.4 62,114.7 80.47,252.3 50.94,379.3 2.79,-12 66.56,-30.1 77.91,-34 28.59,-9.6 58.02,-16.8 87.84,-21.4 58.82,-9.1 119.14,-8.5 177.78,1.7 29.75,5.1 59.07,12.8 87.53,22.9 22.6,8 51.91,29.4 75.99,29.6 50.33,0.6 65.31,-91.2 77.46,-126.7 25.25,-73.7 47.63,-148.5 61.7,-225.2"
         style="fill:#ffffff;fill-opacity:1;fill-rule:nonzero;stroke:none"
         id="path138" />
      <path
         d="m 6094.86,18517.5 c 0,0 0,0 0,0 0,0 0,0 0,0 z m -208.26,-763.1 c 6.4,0 12.63,-2.8 16.89,-7.9 74.73,-89.5 157.28,-153.5 245.36,-190.3 100.58,-42 209.83,-46.4 299.68,-12 103.29,39.5 190.03,134.2 232.03,253.4 36.26,102.9 42.13,223.3 17.45,357.8 -11.99,65.3 -31.34,135.9 -60.89,222.1 -2.21,6.5 -4.55,14.8 -7.13,24.1 -8.58,30.7 -24.5,87.7 -49.07,87.7 -0.07,0 -0.13,0 -0.19,0 -10.47,-0.1 -26.44,-8.2 -40.54,-15.4 -9.37,-4.8 -19.06,-9.7 -28.35,-13 -29.27,-10.4 -59.92,-18.4 -91.11,-23.8 -61.4,-10.6 -123.58,-11.3 -184.92,-1.7 -31.25,4.8 -62.05,12.3 -91.52,22.3 l -7.13,2.3 c -13.05,4 -24.16,7.7 -33.62,11.1 16.89,-118.5 -4.81,-243.1 -61.68,-348.3 -25.83,-47.8 -53.11,-80.3 -85.82,-102.3 -43.46,-29.2 -96.64,-36.3 -138.87,-18.5 -20.7,8.8 -37.2,22.3 -53.15,35.5 -13.19,10.8 -25.66,21.1 -39.33,27.6 -45.56,21.5 -109.74,-4.9 -134.69,-55.4 -23.28,-47.1 -16.34,-111.6 17.68,-164.2 55.67,-86.1 174.93,-126.7 271.54,-92.4 2.41,0.9 4.9,1.3 7.38,1.3 z m 432.6,-277.2 c -62.07,0 -126.25,12.9 -187.33,38.4 -90.83,38 -175.75,102.3 -252.54,191.3 -113.66,-32.8 -244.03,14.8 -308.62,114.7 -42.89,66.4 -50.63,146 -20.18,207.6 35.62,72.1 125.73,107.4 192.97,75.7 18.61,-8.8 33.8,-21.3 48.51,-33.5 14.14,-11.6 27.48,-22.6 42.29,-28.8 28.63,-12.1 65.86,-6.6 97.19,14.5 26.57,17.8 49.33,45.4 71.64,86.6 59.32,109.7 77.11,242.3 48.87,363.8 -2.75,11.8 4.6,23.7 16.45,26.4 9.51,2.3 19.02,-2.1 23.83,-10 5.12,-3.5 19.62,-9.9 57.99,-21.9 l 8.14,-2.6 c 27.06,-9.2 55.37,-16.1 84.15,-20.5 56.55,-8.8 113.97,-8.3 170.65,1.6 28.74,5 56.98,12.3 83.91,21.9 6.6,2.4 14.61,6.4 23.12,10.8 18.38,9.3 39.21,19.9 59.99,20.1 0.26,0 0.52,0 0.78,0 57.9,0 78.01,-72.1 91.36,-119.9 2.32,-8.3 4.41,-15.8 6.4,-21.6 30.27,-88.4 50.15,-161 62.53,-228.5 26.09,-142.1 19.62,-270.1 -19.22,-380.3 -46.23,-131.3 -142.62,-235.9 -257.82,-279.9 -45.08,-17.3 -94.38,-25.9 -145.06,-25.9"
         style="fill:#000000;fill-opacity:1;fill-rule:nonzero;stroke:none"
         id="path140" />
      <path
         d="m 5706.82,17930.8 c 59.35,3 118.84,-32.7 144.1,-86.5 l -144.1,86.5"
         style="fill:#ffffff;fill-opacity:1;fill-rule:nonzero;stroke:none"
         id="path142" />
      <path
         d="m 5850.94,17822.3 c -8.28,0 -16.21,4.7 -19.95,12.6 -21.64,46.1 -72.77,76.5 -123.08,74 -12.21,-0.3 -22.47,8.7 -23.09,20.9 -0.6,12.1 8.75,22.4 20.89,23 67.64,3.3 136.12,-37.4 165.13,-99.2 5.16,-11 0.43,-24.1 -10.58,-29.2 -3,-1.5 -6.21,-2.1 -9.32,-2.1"
         style="fill:#000000;fill-opacity:1;fill-rule:nonzero;stroke:none"
         id="path144" />
      <path
         d="M 4959.45,14079.1 4729.86,3784.8 c -5.35,-220.4 171.86,-402 392.33,-402 H 7453.1 c 234.54,0 416.71,204.4 389.86,437.4 L 7537.75,6517.6 8262.1,3683.4 c 44.4,-173.7 200.91,-295.2 380.23,-295.2 h 3172.27 c 145.9,0 222.8,172.7 125.2,281.2 l -584.2,648.9 -3942.97,9707.3 -2453.18,53.5"
         style="fill:#ffffff;fill-opacity:1;fill-rule:nonzero;stroke:none"
         id="path146" />
      <path
         d="M 4980.97,14056.6 4751.86,3784.3 c -2.45,-100.6 34.93,-195.7 105.23,-267.7 70.3,-72.1 164.44,-111.7 265.09,-111.7 H 7453.1 c 105.53,0 206.33,45.1 276.52,123.9 70.22,78.8 103.55,184.1 91.48,288.9 l -305.22,2697.5 c -1.29,11.5 6.53,22 17.9,24.1 11.48,2.2 22.44,-5 25.3,-16.2 l 724.35,-2834.2 c 41.95,-164.1 189.52,-278.7 358.91,-278.7 h 3172.26 c 58.7,0 109.9,33.2 133.8,86.9 23.9,53.6 14.3,113.9 -24.9,157.5 l -584.2,648.9 c -1.7,1.9 -3.1,4.1 -4.1,6.5 L 7397.69,14003.9 Z M 7453.1,3360.8 H 5122.18 c -112.6,0 -217.94,44.4 -296.6,125 -78.66,80.6 -120.47,187 -117.74,299.5 l 229.61,10294.3 c 0.28,12.1 10.27,21.1 22.48,21.5 l 2453.17,-53.5 c 8.79,-0.2 16.61,-5.6 19.92,-13.8 l 3941.58,-9703.7 581.6,-646 c 51,-56.7 63.5,-135.3 32.4,-204.9 -31,-69.7 -97.7,-113.1 -174,-113.1 H 8642.34 c -189.5,0 -354.63,128.3 -401.55,311.9 l -645.24,2524.6 269.28,-2379.9 c 13.5,-117.3 -23.79,-235.1 -102.34,-323.2 -78.56,-88.1 -191.33,-138.7 -309.39,-138.7"
         style="fill:#000000;fill-opacity:1;fill-rule:nonzero;stroke:none"
         id="path148" />
      <path
         d="m 7525.33,6596.5 c -11.02,0 -20.54,8.3 -21.83,19.5 l -615.6,5323.1 c -10.23,88.3 25.13,174.3 94.57,229.8 l 134.22,107.4 c 9.52,7.6 23.34,6.1 30.95,-3.4 7.59,-9.5 6.04,-23.4 -3.44,-31 l -134.22,-107.4 c -57.53,-46 -86.83,-117.2 -78.36,-190.3 l 615.59,-5323.1 c 1.4,-12.1 -7.26,-23 -19.32,-24.4 -0.86,-0.1 -1.72,-0.2 -2.56,-0.2"
         style="fill:#000000;fill-opacity:1;fill-rule:nonzero;stroke:none"
         id="path150" />
      <path
         d="m 7872.33,5947.5 c -42.96,0 -86.63,1.9 -129.81,7.1 -12.08,1.5 -20.68,12.5 -19.21,24.6 1.46,12 12.33,20.7 24.5,19.2 102.18,-12.4 208.88,-5.7 300.87,1.6 797.13,62.9 1570.12,263.1 2297.52,595 11.1,5 24.1,0.2 29.1,-10.9 5.1,-11.1 0.2,-24.1 -10.9,-29.2 -732.02,-334 -1510,-535.5 -2312.23,-598.8 -55.89,-4.4 -117.1,-8.6 -179.84,-8.6"
         style="fill:#000000;fill-opacity:1;fill-rule:nonzero;stroke:none"
         id="path152" />
      <path
         d="m 6049.3,5805.8 c -404.89,0 -809.81,27.5 -1212.52,82.4 -12.06,1.6 -20.49,12.7 -18.85,24.8 1.65,12 12.68,20.4 24.78,18.8 871.62,-118.9 1753.94,-108.4 2622.45,31.1 11.99,2 23.27,-6.2 25.21,-18.2 1.93,-12 -6.24,-23.3 -18.25,-25.2 -471.49,-75.8 -947.11,-113.7 -1422.82,-113.7"
         style="fill:#000000;fill-opacity:1;fill-rule:nonzero;stroke:none"
         id="path154" />
      <path
         d="M 11212.4,4276.4 H 8110.24 c -12.16,0 -22.01,9.8 -22.01,22 0,12.2 9.85,22 22.01,22 h 3102.16 c 12.1,0 22,-9.8 22,-22 0,-12.2 -9.9,-22 -22,-22"
         style="fill:#000000;fill-opacity:1;fill-rule:nonzero;stroke:none"
         id="path156" />
      <path
         d="M 7637.06,4276.4 H 4749.99 c -12.16,0 -22.01,9.8 -22.01,22 0,12.2 9.85,22 22.01,22 h 2887.07 c 12.16,0 22,-9.8 22,-22 0,-12.2 -9.84,-22 -22,-22"
         style="fill:#000000;fill-opacity:1;fill-rule:nonzero;stroke:none"
         id="path158" />
      <path
         d="m 4467.07,16718.5 c 182.91,219.2 573.22,262.5 1051.34,230.8 28.93,-40 61.74,-77.1 98.34,-110.2 69.36,-62.8 150.89,-111.3 239.28,-142 90.68,-31.4 186.63,-41.8 282.23,-36.4 88.58,5.1 174.87,25.8 252.67,69.3 44.83,25 84.79,57.1 121.39,92.8 77.23,-12.4 154.69,-24.9 232.04,-37.4 396,-63.8 1025.49,-381.9 1357.27,-953.6 985.42,-1697.9 373.43,-2113.9 105.74,-2197.2 -400.26,-124.5 -754.15,286.9 -754.15,286.9 l -1127.88,25 c -1896.15,-631.2 -1818.32,368.4 -1965.03,967.7 -146.71,599.3 -219.22,1413.7 106.76,1804.3"
         style="fill:#645CFF;fill-opacity:1;fill-rule:nonzero;stroke:none"
         id="path160" />
      <path
         d="m 6417.23,16852.4 c 0,0 -40.29,160.8 97.35,115.3 0,0 11.85,188.1 151.35,80.4 l -202.03,263.3 c -21.84,28.4 4.18,94.9 4.18,94.9 28.54,31.1 77.29,32.1 106.95,2 209.55,-212.3 973.6,-1032.2 1536.79,-2236.4 -300.99,-141.7 -644.31,-234.5 -1028.67,-279.9 0,0 -724.62,1778.7 -750.32,1876 -32.83,124.2 84.4,84.4 84.4,84.4"
         style="fill:#ffffff;fill-opacity:1;fill-rule:nonzero;stroke:none"
         id="path162" />
      <path
         d="m 6163.07,15102.3 772.74,152.2 147.34,-362.5 161.46,-553.3 -919.27,-392.2 c 0,0 -217.03,683.5 -162.27,1155.8"
         style="fill:#ffffff;fill-opacity:1;fill-rule:nonzero;stroke:none"
         id="path164" />
      <path
         d="m 7244.66,16594.9 c -6.73,0 -13.37,3 -17.69,8.8 -143.68,193.4 -293.16,378.2 -444.32,549.1 -8.06,9.1 -7.2,23 1.92,31 9.04,8 22.99,7.2 31.05,-1.9 151.98,-171.8 302.28,-357.5 446.68,-551.9 7.25,-9.8 5.23,-23.6 -4.53,-30.8 -3.95,-2.9 -8.56,-4.3 -13.11,-4.3"
         style="fill:#000000;fill-opacity:1;fill-rule:nonzero;stroke:none"
         id="path166" />
      <path
         d="m 8343.93,14706.8 c -8.88,0 -17.24,5.4 -20.59,14.2 -56.67,149.6 -128.98,293.9 -214.88,429 -6.54,10.2 -3.51,23.8 6.75,30.4 10.29,6.4 23.87,3.4 30.39,-6.8 87.49,-137.6 161.15,-284.6 218.92,-437 4.3,-11.3 -1.42,-24 -12.79,-28.4 -2.57,-0.9 -5.2,-1.4 -7.8,-1.4"
         style="fill:#000000;fill-opacity:1;fill-rule:nonzero;stroke:none"
         id="path168" />
      <path
         d="m 5279.83,14861.1 c -8.96,0 -17.38,5.5 -20.66,14.4 -4.18,11.4 1.66,24.1 13.08,28.3 274.09,100.7 559.41,173.9 848.01,217.4 12.06,1.7 23.24,-6.4 25.07,-18.4 1.8,-12.1 -6.47,-23.3 -18.49,-25.1 -285.68,-43.1 -568.09,-115.6 -839.42,-215.2 -2.49,-1 -5.08,-1.4 -7.59,-1.4"
         style="fill:#000000;fill-opacity:1;fill-rule:nonzero;stroke:none"
         id="path170" />
      <path
         d="m 5423.62,14921.1 c -9.33,0 -17.99,6 -20.98,15.4 -88.23,277.6 -152.04,564.8 -189.63,853.7 -1.57,12 6.92,23.1 18.98,24.6 11.99,1.7 23.08,-6.9 24.65,-18.9 37.27,-286.3 100.5,-571 187.95,-846.1 3.68,-11.6 -2.72,-24 -14.31,-27.6 -2.21,-0.7 -4.47,-1.1 -6.66,-1.1"
         style="fill:#000000;fill-opacity:1;fill-rule:nonzero;stroke:none"
         id="path172" />
      <path
         d="m 7440.67,13924.5 c -6.16,0 -12.31,2.6 -16.65,7.7 -91.24,105.8 -152.88,229 -188.49,376.8 -2.84,11.8 4.42,23.7 16.24,26.5 11.82,2.8 23.69,-4.4 26.57,-16.2 33.92,-140.8 92.46,-258 178.99,-358.4 7.95,-9.2 6.92,-23.1 -2.28,-31 -4.17,-3.6 -9.28,-5.4 -14.38,-5.4"
         style="fill:#000000;fill-opacity:1;fill-rule:nonzero;stroke:none"
         id="path174" />
      <path
         d="M 14016.8,3360.8 H 6734.92 c -12.17,0 -22.01,9.9 -22.01,22 0,12.2 9.84,22.1 22.01,22.1 h 7281.88 c 12.1,0 22,-9.9 22,-22.1 0,-12.1 -9.9,-22 -22,-22"
         style="fill:#000000;fill-opacity:1;fill-rule:nonzero;stroke:none"
         id="path176" />
      <path
         d="m 15614.8,6387.7 h -2866.5 v 2136 h 2866.5 v -2136"
         style="fill:#ffffff;fill-opacity:1;fill-rule:nonzero;stroke:none"
         id="path178" />
      <path
         d="m 12770.3,6409.7 h 2822.4 v 2092 h -2822.4 z m 2844.4,-44 h -2866.4 c -12.2,0 -22,9.8 -22,22 v 2136 c 0,12.2 9.8,22 22,22 h 2866.4 c 12.2,0 22.1,-9.8 22.1,-22 v -2136 c 0,-12.2 -9.9,-22 -22.1,-22"
         style="fill:#000000;fill-opacity:1;fill-rule:nonzero;stroke:none"
         id="path180" />
      <path
         d="m 14440.9,7422.3 c -6.9,0 -13.7,3.2 -18,9.3 -7,10 -4.6,23.7 5.3,30.7 l 1031.4,726.3 c 10,6.9 23.7,4.6 30.6,-5.3 7,-10 4.7,-23.7 -5.3,-30.7 l -1031.3,-726.3 c -3.9,-2.7 -8.3,-4 -12.7,-4"
         style="fill:#000000;fill-opacity:1;fill-rule:nonzero;stroke:none"
         id="path182" />
      <path
         d="m 13922.1,7422.3 c -4.3,0 -8.7,1.3 -12.6,4 l -1031.4,726.3 c -9.9,7 -12.3,20.7 -5.3,30.7 7,9.9 20.7,12.2 30.7,5.3 l 1031.4,-726.3 c 9.9,-7 12.3,-20.7 5.3,-30.7 -4.3,-6.1 -11.1,-9.3 -18.1,-9.3"
         style="fill:#000000;fill-opacity:1;fill-rule:nonzero;stroke:none"
         id="path184" />
      <path
         d="m 14457,7248.2 h -551 v 479.2 h 551 v -479.2"
         style="fill:#645CFF;fill-opacity:1;fill-rule:nonzero;stroke:none"
         id="path186" />
      <path
         d="m 14888.8,8702.8 c -12.1,0 -22,9.9 -22,22 v 196.9 c 0,101.5 -82.6,184.1 -184.1,184.1 h -1002.3 c -101.6,0 -184.2,-82.6 -184.2,-184.1 v -196.9 c 0,-12.1 -9.8,-22 -22,-22 -12.1,0 -22,9.9 -22,22 v 196.9 c 0,125.8 102.4,228.1 228.2,228.1 h 1002.3 c 125.8,0 228.1,-102.3 228.1,-228.1 v -196.9 c 0,-12.1 -9.8,-22 -22,-22"
         style="fill:#000000;fill-opacity:1;fill-rule:nonzero;stroke:none"
         id="path188" />
      <path
         d="m 15038.1,8631.2 h -298.5 c -12.2,0 -22,9.8 -22,22 0,12.1 9.8,22 22,22 h 298.5 c 12.2,0 22,-9.9 22,-22 0,-12.2 -9.8,-22 -22,-22"
         style="fill:#000000;fill-opacity:1;fill-rule:nonzero;stroke:none"
         id="path190" />
      <path
         d="m 13623.5,8631.2 h -298.6 c -12.1,0 -22,9.8 -22,22 0,12.1 9.9,22 22,22 h 298.6 c 12.2,0 22,-9.9 22,-22 0,-12.2 -9.8,-22 -22,-22"
         style="fill:#000000;fill-opacity:1;fill-rule:nonzero;stroke:none"
         id="path192" />
    </g>
  </g>
</svg>
